<?xml version="1.0" encoding="utf-8"?>
<svg xmlns:xlink="http://www.w3.org/1999/xlink" width="576" height="432" xmlns="http://www.w3.org/2000/svg">
  <rect width="21" height="16" rx="5" x="15" y="402" fill="white" stroke="#707070" />
  <text x="25" y="410" text-anchor="middle" font-family="Arial" font-size="8" style="dominant-baseline: central;">---</text>
  <rect width="21" height="16" rx="5" x="46" y="402" fill="white" stroke="#707070" />
  <text x="56" y="410" text-anchor="middle" font-family="Arial" font-size="8" style="dominant-baseline: central;">---</text>
  <rect width="21" height="16" rx="5" x="77" y="402" fill="white" stroke="#707070" />
  <text x="87" y="410" text-anchor="middle" font-family="Arial" font-size="8" style="dominant-baseline: central;">---</text>
  <rect width="21" height="16" rx="5" x="108" y="402" fill="white" stroke="#707070" />
  <text x="118" y="410" text-anchor="middle" font-family="Arial" font-size="8" style="dominant-baseline: central;">---</text>
  <rect width="21" height="16" rx="5" x="139" y="402" fill="white" stroke="#707070" />
  <text x="149" y="410" text-anchor="middle" font-family="Arial" font-size="8" style="dominant-baseline: central;">---</text>
  <rect width="21" height="16" rx="5" x="170" y="402" fill="white" stroke="#707070" />
  <text x="180" y="410" text-anchor="middle" font-family="Arial" font-size="8" style="dominant-baseline: central;">---</text>
  <rect width="21" height="16" rx="5" x="201" y="402" fill="white" stroke="#707070" />
  <text x="211" y="410" text-anchor="middle" font-family="Arial" font-size="8" style="dominant-baseline: central;">---</text>
  <rect width="21" height="16" rx="5" x="232" y="402" fill="white" stroke="#707070" />
  <text x="242" y="410" text-anchor="middle" font-family="Arial" font-size="8" style="dominant-baseline: central;">---</text>
  <rect width="21" height="16" rx="5" x="263" y="402" fill="white" stroke="#707070" />
  <text x="273" y="410" text-anchor="middle" font-family="Arial" font-size="8" style="dominant-baseline: central;">---</text>
  <rect width="21" height="16" rx="5" x="294" y="402" fill="white" stroke="#707070" />
  <text x="304" y="410" text-anchor="middle" font-family="Arial" font-size="8" style="dominant-baseline: central;">---</text>
  <rect width="21" height="16" rx="5" x="325" y="402" fill="white" stroke="#707070" />
  <text x="335" y="410" text-anchor="middle" font-family="Arial" font-size="8" style="dominant-baseline: central;">---</text>
  <rect width="39" height="16" rx="5" x="356" y="402" fill="white" stroke="#707070" />
  <text x="375" y="410" text-anchor="middle" font-family="Arial" font-size="8" style="dominant-baseline: central;">51111</text>
  <line x1="25" y1="388" x2="25" y2="402" stroke-width="1" stroke="#707070" />
  <rect width="21" height="16" rx="5" x="15" y="372" fill="white" stroke="#707070" />
  <text x="25" y="380" text-anchor="middle" font-family="Arial" font-size="8" style="dominant-baseline: central;">---</text>
  <line x1="56" y1="388" x2="56" y2="402" stroke-width="1" stroke="#707070" />
  <rect width="21" height="16" rx="5" x="46" y="372" fill="white" stroke="#707070" />
  <text x="56" y="380" text-anchor="middle" font-family="Arial" font-size="8" style="dominant-baseline: central;">---</text>
  <line x1="87" y1="388" x2="87" y2="402" stroke-width="1" stroke="#707070" />
  <rect width="21" height="16" rx="5" x="77" y="372" fill="white" stroke="#707070" />
  <text x="87" y="380" text-anchor="middle" font-family="Arial" font-size="8" style="dominant-baseline: central;">---</text>
  <line x1="118" y1="388" x2="118" y2="402" stroke-width="1" stroke="#707070" />
  <rect width="21" height="16" rx="5" x="108" y="372" fill="white" stroke="#707070" />
  <text x="118" y="380" text-anchor="middle" font-family="Arial" font-size="8" style="dominant-baseline: central;">---</text>
  <line x1="149" y1="388" x2="149" y2="402" stroke-width="1" stroke="#707070" />
  <rect width="21" height="16" rx="5" x="139" y="372" fill="white" stroke="#707070" />
  <text x="149" y="380" text-anchor="middle" font-family="Arial" font-size="8" style="dominant-baseline: central;">---</text>
  <line x1="180" y1="388" x2="180" y2="402" stroke-width="1" stroke="#707070" />
  <rect width="21" height="16" rx="5" x="170" y="372" fill="white" stroke="#707070" />
  <text x="180" y="380" text-anchor="middle" font-family="Arial" font-size="8" style="dominant-baseline: central;">---</text>
  <line x1="211" y1="388" x2="211" y2="402" stroke-width="1" stroke="#707070" />
  <rect width="33" height="16" rx="5" x="195" y="372" fill="white" stroke="#707070" />
  <text x="211" y="380" text-anchor="middle" font-family="Arial" font-size="8" style="dominant-baseline: central;">3111</text>
  <line x1="242" y1="388" x2="242" y2="402" stroke-width="1" stroke="#707070" />
  <rect width="33" height="16" rx="5" x="226" y="372" fill="white" stroke="#707070" />
  <text x="242" y="380" text-anchor="middle" font-family="Arial" font-size="8" style="dominant-baseline: central;">3112</text>
  <line x1="273" y1="388" x2="273" y2="402" stroke-width="1" stroke="#707070" />
  <rect width="33" height="16" rx="5" x="257" y="372" fill="white" stroke="#707070" />
  <text x="273" y="380" text-anchor="middle" font-family="Arial" font-size="8" style="dominant-baseline: central;">3113</text>
  <line x1="304" y1="388" x2="304" y2="402" stroke-width="1" stroke="#707070" />
  <rect width="21" height="16" rx="5" x="294" y="372" fill="white" stroke="#707070" />
  <text x="304" y="380" text-anchor="middle" font-family="Arial" font-size="8" style="dominant-baseline: central;">---</text>
  <line x1="335" y1="388" x2="335" y2="402" stroke-width="1" stroke="#707070" />
  <rect width="21" height="16" rx="5" x="325" y="372" fill="white" stroke="#707070" />
  <text x="335" y="380" text-anchor="middle" font-family="Arial" font-size="8" style="dominant-baseline: central;">---</text>
  <line x1="375" y1="388" x2="375" y2="402" stroke-width="1" stroke="#707070" />
  <rect width="45" height="16" rx="5" x="353" y="372" fill="white" stroke="#707070" />
  <text x="375" y="380" text-anchor="middle" font-family="Arial" font-size="8" style="dominant-baseline: central;">5-1-1-1</text>
  <line x1="25" y1="358" x2="25" y2="372" stroke-width="1" stroke="#707070" />
  <rect width="21" height="16" rx="5" x="15" y="342" fill="white" stroke="#707070" />
  <text x="25" y="350" text-anchor="middle" font-family="Arial" font-size="8" style="dominant-baseline: central;">---</text>
  <line x1="56" y1="358" x2="56" y2="372" stroke-width="1" stroke="#707070" />
  <rect width="27" height="16" rx="5" x="43" y="342" fill="white" stroke="#707070" />
  <text x="56" y="350" text-anchor="middle" font-family="Arial" font-size="8" style="dominant-baseline: central;">111</text>
  <line x1="87" y1="358" x2="87" y2="372" stroke-width="1" stroke="#707070" />
  <rect width="21" height="16" rx="5" x="77" y="342" fill="white" stroke="#707070" />
  <text x="87" y="350" text-anchor="middle" font-family="Arial" font-size="8" style="dominant-baseline: central;">---</text>
  <line x1="118" y1="358" x2="118" y2="372" stroke-width="1" stroke="#707070" />
  <rect width="27" height="16" rx="5" x="105" y="342" fill="white" stroke="#707070" />
  <text x="118" y="350" text-anchor="middle" font-family="Arial" font-size="8" style="dominant-baseline: central;">211</text>
  <line x1="149" y1="358" x2="149" y2="372" stroke-width="1" stroke="#707070" />
  <rect width="27" height="16" rx="5" x="136" y="342" fill="white" stroke="#707070" />
  <text x="149" y="350" text-anchor="middle" font-family="Arial" font-size="8" style="dominant-baseline: central;">212</text>
  <line x1="180" y1="358" x2="180" y2="372" stroke-width="1" stroke="#707070" />
  <rect width="27" height="16" rx="5" x="167" y="342" fill="white" stroke="#707070" />
  <text x="180" y="350" text-anchor="middle" font-family="Arial" font-size="8" style="dominant-baseline: central;">213</text>
  <line x1="242" y1="358" x2="211" y2="372" stroke-width="1" stroke="#707070" />
  <line x1="242" y1="358" x2="242" y2="372" stroke-width="1" stroke="#707070" />
  <line x1="242" y1="358" x2="273" y2="372" stroke-width="1" stroke="#707070" />
  <rect width="27" height="16" rx="5" x="229" y="342" fill="white" stroke="#707070" />
  <text x="242" y="350" text-anchor="middle" font-family="Arial" font-size="8" style="dominant-baseline: central;">311</text>
  <line x1="304" y1="358" x2="304" y2="372" stroke-width="1" stroke="#707070" />
  <rect width="27" height="16" rx="5" x="291" y="342" fill="white" stroke="#707070" />
  <text x="304" y="350" text-anchor="middle" font-family="Arial" font-size="8" style="dominant-baseline: central;">312</text>
  <line x1="335" y1="358" x2="335" y2="372" stroke-width="1" stroke="#707070" />
  <rect width="21" height="16" rx="5" x="325" y="342" fill="white" stroke="#707070" />
  <text x="335" y="350" text-anchor="middle" font-family="Arial" font-size="8" style="dominant-baseline: central;">---</text>
  <line x1="375" y1="358" x2="375" y2="372" stroke-width="1" stroke="#707070" />
  <rect width="29" height="16" rx="5" x="361" y="342" fill="white" stroke="#707070" />
  <text x="375" y="350" text-anchor="middle" font-family="Arial" font-size="8" style="dominant-baseline: central;">*51*</text>
  <line x1="25" y1="328" x2="25" y2="342" stroke-width="1" stroke="#707070" />
  <rect width="21" height="16" rx="5" x="15" y="312" fill="white" stroke="#707070" />
  <text x="25" y="320" text-anchor="middle" font-family="Arial" font-size="8" style="dominant-baseline: central;">---</text>
  <line x1="56" y1="328" x2="56" y2="342" stroke-width="1" stroke="#707070" />
  <rect width="21" height="16" rx="5" x="46" y="312" fill="white" stroke="#707070" />
  <text x="56" y="320" text-anchor="middle" font-family="Arial" font-size="8" style="dominant-baseline: central;">11</text>
  <line x1="87" y1="328" x2="87" y2="342" stroke-width="1" stroke="#707070" />
  <rect width="21" height="16" rx="5" x="77" y="312" fill="white" stroke="#707070" />
  <text x="87" y="320" text-anchor="middle" font-family="Arial" font-size="8" style="dominant-baseline: central;">21</text>
  <line x1="149" y1="328" x2="118" y2="342" stroke-width="1" stroke="#707070" />
  <line x1="149" y1="328" x2="149" y2="342" stroke-width="1" stroke="#707070" />
  <line x1="149" y1="328" x2="180" y2="342" stroke-width="1" stroke="#707070" />
  <rect width="21" height="16" rx="5" x="139" y="312" fill="white" stroke="#707070" />
  <text x="149" y="320" text-anchor="middle" font-family="Arial" font-size="8" style="dominant-baseline: central;">22</text>
  <line x1="273" y1="328" x2="242" y2="342" stroke-width="1" stroke="#707070" />
  <line x1="273" y1="328" x2="304" y2="342" stroke-width="1" stroke="#707070" />
  <rect width="21" height="16" rx="5" x="263" y="312" fill="white" stroke="#707070" />
  <text x="273" y="320" text-anchor="middle" font-family="Arial" font-size="8" style="dominant-baseline: central;">31</text>
  <line x1="335" y1="328" x2="335" y2="342" stroke-width="1" stroke="#707070" />
  <rect width="21" height="16" rx="5" x="325" y="312" fill="white" stroke="#707070" />
  <text x="335" y="320" text-anchor="middle" font-family="Arial" font-size="8" style="dominant-baseline: central;">---</text>
  <line x1="375" y1="328" x2="375" y2="342" stroke-width="1" stroke="#707070" />
  <rect width="42" height="16" rx="5" x="354" y="312" fill="white" stroke="#707070" />
  <text x="375" y="320" text-anchor="middle" font-family="Arial" font-size="8" style="dominant-baseline: central;">Text 5</text>
  <line x1="25" y1="298" x2="25" y2="312" stroke-width="1" stroke="#707070" />
  <rect width="15" height="16" rx="5" x="18" y="282" fill="white" stroke="#707070" />
  <text x="25" y="290" text-anchor="middle" font-family="Arial" font-size="8" style="dominant-baseline: central;">0</text>
  <line x1="56" y1="298" x2="56" y2="312" stroke-width="1" stroke="#707070" />
  <rect width="15" height="16" rx="5" x="49" y="282" fill="white" stroke="#707070" />
  <text x="56" y="290" text-anchor="middle" font-family="Arial" font-size="8" style="dominant-baseline: central;">1</text>
  <line x1="118" y1="298" x2="87" y2="312" stroke-width="1" stroke="#707070" />
  <line x1="118" y1="298" x2="149" y2="312" stroke-width="1" stroke="#707070" />
  <rect width="15" height="16" rx="5" x="111" y="282" fill="white" stroke="#707070" />
  <text x="118" y="290" text-anchor="middle" font-family="Arial" font-size="8" style="dominant-baseline: central;">2</text>
  <line x1="273" y1="298" x2="273" y2="312" stroke-width="1" stroke="#707070" />
  <rect width="15" height="16" rx="5" x="266" y="282" fill="white" stroke="#707070" />
  <text x="273" y="290" text-anchor="middle" font-family="Arial" font-size="8" style="dominant-baseline: central;">3</text>
  <line x1="335" y1="298" x2="335" y2="312" stroke-width="1" stroke="#707070" />
  <rect width="15" height="16" rx="5" x="328" y="282" fill="white" stroke="#707070" />
  <text x="335" y="290" text-anchor="middle" font-family="Arial" font-size="8" style="dominant-baseline: central;">4</text>
  <line x1="375" y1="298" x2="375" y2="312" stroke-width="1" stroke="#707070" />
  <rect width="15" height="16" rx="5" x="368" y="282" fill="white" stroke="#707070" />
  <text x="375" y="290" text-anchor="middle" font-family="Arial" font-size="8" style="dominant-baseline: central;">5</text>
</svg>